<svg width="35" height="24" viewBox="0 0 35 24" fill="none" version="1.1" id="svg6" sodipodi:docname="Icon.svg"
   inkscape:version="1.3.2 (091e20e, 2023-11-25)" xmlns:inkscape="http://www.inkscape.org/namespaces/inkscape"
   xmlns:sodipodi="http://sodipodi.sourceforge.net/DTD/sodipodi-0.dtd" xmlns="http://www.w3.org/2000/svg"
   xmlns:svg="http://www.w3.org/2000/svg">
   <defs id="defs6" />
   <sodipodi:namedview id="namedview6" pagecolor="#ffffff" bordercolor="#000000" borderopacity="0.25"
      inkscape:showpageshadow="2" inkscape:pageopacity="0.0" inkscape:pagecheckerboard="0" inkscape:deskcolor="#d1d1d1"
      inkscape:zoom="9.8333333" inkscape:cx="17.542373" inkscape:cy="11.949153" inkscape:window-width="1312"
      inkscape:window-height="748" inkscape:window-x="0" inkscape:window-y="25" inkscape:window-maximized="0"
      inkscape:current-layer="svg6" />
   <path d="M18.7863 13.134L13.3954 22.3669L8.00448 13.134H18.7863ZM20.2305 12.3088H6.55444L13.3954 24L20.2305 12.3088Z"
      fill="#263238" id="path1" />
   <path d="M28.1591 1.65038L33.55 10.8833H22.7681L28.1591 1.65038ZM28.1591 0L21.3181 11.6912H35L28.1591 0Z"
      fill="#263238" id="path2" />
   <path d="M0 0L5.7359 10.3409L12.0038 0.259661L0 0Z" fill="#4CAF4F" id="path3" />
   <path d="M13.3955 0.905884L19.4121 11.189H7.36728L13.3955 0.905884Z" fill="#4CAF4F" id="path4" />
   <path d="M20.9615 13.434L26.9839 24H14.6526L20.7744 13.434H20.9615Z" fill="#4CAF4F" id="path5" />
   <path d="M22.2653 12.7935L28.1591 23.1978L34.1347 12.7935H22.2653Z" fill="#4CAF4F" id="path6" />
   <path style="fill:#ffffff;stroke-width:0.101695"
      d="m 23.003327,10.601695 c 0.07995,-0.125848 1.257555,-2.1394069 2.616902,-4.4745764 1.359346,-2.3351694 2.500468,-4.2457534 2.535825,-4.245742 0.05376,1.73e-5 1.644454,2.6847758 4.71209,7.9530429 l 0.580008,0.9960885 h -5.295094 -5.295094 z"
      id="path7" />
   <path style="fill:#ffffff;stroke-width:0.101695"
      d="M 10.932203,18.030555 C 9.5898305,15.732235 8.4103474,13.698274 8.3111299,13.510642 l -0.1803956,-0.34115 h 5.2843697 5.28437 l -2.598772,4.449152 c -1.429325,2.447034 -2.627808,4.480995 -2.663296,4.519913 -0.03549,0.03892 -1.16283,-1.809682 -2.505203,-4.108002 z"
      id="path8" />
</svg>